<svg id="kity_svg_6" xmlns="http://www.w3.org/2000/svg" xmlns:xlink="http://www.w3.org/1999/xlink" version="1.1" width="1106" height="540" style="background: rgb(251, 251, 251); visibility: visible;" viewBox="0 0 1106 540"><defs id="kity_defs_7"><linearGradient id="kity_linearGradient_17" x1="0" y1="0" x2="0" y2="1"><stop id="kity_stop_18" offset="0" stop-color="rgb(255, 255, 255)"></stop><stop id="kity_stop_19" offset="1" stop-color="rgb(204, 204, 204)"></stop></linearGradient><marker id="kity_marker_2" orient="auto" refX="6" refY="0" viewBox="-7 -7 14 14" markerWidth="7" markerHeight="7" markerUnits="userSpaceOnUse"><path id="kity_path_3" fill="rgb(115, 161, 191)" stroke="none" d="M6,0A6,6,0,1,1,-6,0A6,6,0,1,1,6,0"></path></marker></defs><g id="kity_g_8"><g id="minder1" text-rendering="optimize-speed"><g id="minder_connect_group1"><path id="kity_path_31" fill="none" stroke="rgb(115, 161, 191)" stroke-width="1" d="M86.5,283.5A184,148,0,0,1,270.5,135.5"></path><path id="kity_path_33" fill="none" stroke="rgb(115, 161, 191)" stroke-width="1" d="M551.5,135.5C571.5,135.5,571.5,57.5,591.5,57.5"></path><path id="kity_path_35" fill="none" stroke="rgb(115, 161, 191)" stroke-width="1" d="M637.5,57.5C657.5,57.5,657.5,31.5,677.5,31.5"></path><path id="kity_path_37" fill="none" stroke="rgb(115, 161, 191)" stroke-width="1" d="M637.5,57.5C657.5,57.5,657.5,83.5,677.5,83.5"></path><path id="kity_path_39" fill="none" stroke="rgb(115, 161, 191)" stroke-width="1" d="M551.5,135.5C571.5,135.5,571.5,213.5,591.5,213.5"></path><path id="kity_path_41" fill="none" stroke="rgb(115, 161, 191)" stroke-width="1" d="M661.5,213.5C681.5,213.5,681.5,135.5,701.5,135.5"></path><path id="kity_path_43" fill="none" stroke="rgb(115, 161, 191)" stroke-width="1" d="M661.5,213.5C681.5,213.5,681.5,187.5,701.5,187.5"></path><path id="kity_path_45" fill="none" stroke="rgb(115, 161, 191)" stroke-width="1" d="M661.5,213.5C681.5,213.5,681.5,239.5,701.5,239.5"></path><path id="kity_path_47" fill="none" stroke="rgb(115, 161, 191)" stroke-width="1" d="M661.5,213.5C681.5,213.5,681.5,291.5,701.5,291.5"></path><path id="kity_path_49" fill="none" stroke="rgb(115, 161, 191)" stroke-width="1" d="M86.5,283.5A184,148,0,0,0,270.5,431.5"></path><path id="kity_path_51" fill="none" stroke="rgb(115, 161, 191)" stroke-width="1" d="M701.5,431.5C721.5,431.5,721.5,431.5,741.5,431.5"></path><path id="kity_path_53" fill="none" stroke="rgb(115, 161, 191)" stroke-width="1" d="M811.5,431.5C831.5,431.5,831.5,353.5,851.5,353.5"></path><path id="kity_path_55" fill="none" stroke="rgb(115, 161, 191)" stroke-width="1" d="M811.5,431.5C831.5,431.5,831.5,405.5,851.5,405.5"></path><path id="kity_path_57" fill="none" stroke="rgb(115, 161, 191)" stroke-width="1" d="M811.5,431.5C831.5,431.5,831.5,457.5,851.5,457.5"></path><path id="kity_path_59" fill="none" stroke="rgb(115, 161, 191)" stroke-width="1" d="M811.5,431.5C831.5,431.5,831.5,509.5,851.5,509.5"></path></g><g id="minder_node1"><path id="node_outline1" fill="rgb(115, 161, 191)" stroke="rgb(57, 80, 96)" d="M25.5,263.5h122a5,5,0,0,1,5,5v30a5,5,0,0,1,-5,5h-122a5,5,0,0,1,-5,-5v-30a5,5,0,0,1,5,-5z" stroke-width="3"></path><g id="node_text1" fill="white"><text id="kity_text_22" text-rendering="inherit" font-size="16" dy=".8em" y="273.09999990463257" x="44.5">Set 和 Map</text></g></g><g id="kity_g_12"><path id="kity_path_13" fill="none" stroke="none" d="M44.5,283.5h0v0h0z"></path></g><g id="kity_g_14"><path id="kity_path_15" fill="none" stroke="none" d="M44.5,283.5h0v0h0z"></path><path id="kity_path_16" fill="none" stroke="none"></path></g><g id="minder_node2"><g id="node_expander9" style="cursor: pointer;"><path id="kity_path_130" fill="white" stroke="gray" d="M271.5,135.5A6,6,0,1,1,259.5,135.5A6,6,0,1,1,271.5,135.5"></path><path id="kity_path_131" fill="none" stroke="gray" d="M261,135.5L270,135.5"></path></g><path id="node_outline10" fill="rgb(238, 243, 246)" stroke="rgb(115, 161, 191)" d="M275.5,122.5h273a3,3,0,0,1,3,3v20a3,3,0,0,1,-3,3h-273a3,3,0,0,1,-3,-3v-20a3,3,0,0,1,3,-3z" stroke-width="1"></path><g id="node_text10" fill="black"><text id="kity_text_77" text-rendering="inherit" font-size="14" dy=".8em" y="126.40000009536743" x="292.5">new Set(Array)：类似数组，成员唯一</text></g></g><g id="minder_node3"><g id="node_expander3" style="cursor: pointer;"><path id="kity_path_112" fill="white" stroke="gray" d="M591.5,57.5A6,6,0,1,1,579.5,57.5A6,6,0,1,1,591.5,57.5"></path><path id="kity_path_113" fill="none" stroke="gray" d="M581,57.5L590,57.5"></path></g><path id="node_outline4" fill="none" stroke="none" d="M596.5,46.5h36a5,5,0,0,1,5,5v12a5,5,0,0,1,-5,5h-36a5,5,0,0,1,-5,-5v-12a5,5,0,0,1,5,-5z"></path><g id="node_text4" fill="black"><text id="kity_text_65" text-rendering="inherit" font-size="12" dy=".8em" y="49.700000047683716" x="601.5">属性 </text></g></g><g id="minder_node4"><g id="node_expander1" display="none" style="cursor: pointer;"><path id="kity_path_106" fill="white" stroke="gray" d="M677.5,31.5A6,6,0,1,1,665.5,31.5A6,6,0,1,1,677.5,31.5"></path><path id="kity_path_107" fill="none" stroke="gray"></path></g><path id="node_outline2" fill="none" stroke="none" d="M682.5,20.5h331a5,5,0,0,1,5,5v12a5,5,0,0,1,-5,5h-331a5,5,0,0,1,-5,-5v-12a5,5,0,0,1,5,-5z"></path><g id="node_text2" fill="black"><text id="kity_text_61" text-rendering="inherit" font-size="12" dy=".8em" y="23.700000047683716" x="687.5">Set.prototype.constructor：构造函数，默认就是Set函数。</text></g></g><g id="minder_node5"><g id="node_expander2" display="none" style="cursor: pointer;"><path id="kity_path_109" fill="white" stroke="gray" d="M677.5,83.5A6,6,0,1,1,665.5,83.5A6,6,0,1,1,677.5,83.5"></path><path id="kity_path_110" fill="none" stroke="gray"></path></g><path id="node_outline3" fill="none" stroke="none" d="M682.5,72.5h263a5,5,0,0,1,5,5v12a5,5,0,0,1,-5,5h-263a5,5,0,0,1,-5,-5v-12a5,5,0,0,1,5,-5z"></path><g id="node_text3" fill="black"><text id="kity_text_63" text-rendering="inherit" font-size="12" dy=".8em" y="75.70000004768372" x="687.5">Set.prototype.size：返回Set实例的成员总数。</text></g></g><g id="minder_node6"><g id="node_expander8" style="cursor: pointer;"><path id="kity_path_127" fill="white" stroke="gray" d="M591.5,213.5A6,6,0,1,1,579.5,213.5A6,6,0,1,1,591.5,213.5"></path><path id="kity_path_128" fill="none" stroke="gray" d="M581,213.5L590,213.5"></path></g><path id="node_outline9" fill="none" stroke="none" d="M596.5,202.5h60a5,5,0,0,1,5,5v12a5,5,0,0,1,-5,5h-60a5,5,0,0,1,-5,-5v-12a5,5,0,0,1,5,-5z"></path><g id="node_text9" fill="black"><text id="kity_text_75" text-rendering="inherit" font-size="12" dy=".8em" y="205.70000004768372" x="601.5">操作方法</text></g></g><g id="minder_node7"><g id="node_expander4" display="none" style="cursor: pointer;"><path id="kity_path_115" fill="white" stroke="gray" d="M701.5,135.5A6,6,0,1,1,689.5,135.5A6,6,0,1,1,701.5,135.5"></path><path id="kity_path_116" fill="none" stroke="gray"></path></g><path id="node_outline5" fill="none" stroke="none" d="M706.5,124.5h264a5,5,0,0,1,5,5v12a5,5,0,0,1,-5,5h-264a5,5,0,0,1,-5,-5v-12a5,5,0,0,1,5,-5z"></path><g id="node_text5" fill="black"><text id="kity_text_67" text-rendering="inherit" font-size="12" dy=".8em" y="127.70000004768372" x="711.5">add(value)：添加某个值，返回 Set 结构本身。</text></g></g><g id="minder_node8"><g id="node_expander5" display="none" style="cursor: pointer;"><path id="kity_path_118" fill="white" stroke="gray" d="M701.5,187.5A6,6,0,1,1,689.5,187.5A6,6,0,1,1,701.5,187.5"></path><path id="kity_path_119" fill="none" stroke="gray"></path></g><path id="node_outline6" fill="none" stroke="none" d="M706.5,176.5h372a5,5,0,0,1,5,5v12a5,5,0,0,1,-5,5h-372a5,5,0,0,1,-5,-5v-12a5,5,0,0,1,5,-5z"></path><g id="node_text6" fill="black"><text id="kity_text_69" text-rendering="inherit" font-size="12" dy=".8em" y="179.70000004768372" x="711.5">delete(value)：删除某个值，返回一个布尔值，表示删除是否成功。</text></g></g><g id="minder_node9"><g id="node_expander6" display="none" style="cursor: pointer;"><path id="kity_path_121" fill="white" stroke="gray" d="M701.5,239.5A6,6,0,1,1,689.5,239.5A6,6,0,1,1,701.5,239.5"></path><path id="kity_path_122" fill="none" stroke="gray"></path></g><path id="node_outline7" fill="none" stroke="none" d="M706.5,228.5h326a5,5,0,0,1,5,5v12a5,5,0,0,1,-5,5h-326a5,5,0,0,1,-5,-5v-12a5,5,0,0,1,5,-5z"></path><g id="node_text7" fill="black"><text id="kity_text_71" text-rendering="inherit" font-size="12" dy=".8em" y="231.70000004768372" x="711.5">has(value)：返回一个布尔值，表示该值是否为Set的成员。</text></g></g><g id="minder_node10"><g id="node_expander7" display="none" style="cursor: pointer;"><path id="kity_path_124" fill="white" stroke="gray" d="M701.5,291.5A6,6,0,1,1,689.5,291.5A6,6,0,1,1,701.5,291.5"></path><path id="kity_path_125" fill="none" stroke="gray"></path></g><path id="node_outline8" fill="none" stroke="none" d="M706.5,280.5h213a5,5,0,0,1,5,5v12a5,5,0,0,1,-5,5h-213a5,5,0,0,1,-5,-5v-12a5,5,0,0,1,5,-5z"></path><g id="node_text8" fill="black"><text id="kity_text_73" text-rendering="inherit" font-size="12" dy=".8em" y="283.7000000476837" x="711.5">clear()：清除所有成员，没有返回值。</text></g></g><g id="minder_node11"><g id="node_expander15" style="cursor: pointer;"><path id="kity_path_148" fill="white" stroke="gray" d="M271.5,431.5A6,6,0,1,1,259.5,431.5A6,6,0,1,1,271.5,431.5"></path><path id="kity_path_149" fill="none" stroke="gray" d="M261,431.5L270,431.5"></path></g><path id="node_outline16" fill="rgb(238, 243, 246)" stroke="rgb(115, 161, 191)" d="M275.5,418.5h423a3,3,0,0,1,3,3v20a3,3,0,0,1,-3,3h-423a3,3,0,0,1,-3,-3v-20a3,3,0,0,1,3,-3z" stroke-width="1"></path><g id="node_text16" fill="black"><text id="kity_text_89" text-rendering="inherit" font-size="14" dy=".8em" y="422.40000009536743" x="292.5">new Map([['key', 'value'], ...])：键值对结构， 键可为任意类型</text></g></g><g id="minder_node12"><g id="node_expander14" style="cursor: pointer;"><path id="kity_path_145" fill="white" stroke="gray" d="M741.5,431.5A6,6,0,1,1,729.5,431.5A6,6,0,1,1,741.5,431.5"></path><path id="kity_path_146" fill="none" stroke="gray" d="M731,431.5L740,431.5"></path></g><path id="node_outline15" fill="none" stroke="none" d="M746.5,420.5h60a5,5,0,0,1,5,5v12a5,5,0,0,1,-5,5h-60a5,5,0,0,1,-5,-5v-12a5,5,0,0,1,5,-5z"></path><g id="node_text15" fill="black"><text id="kity_text_87" text-rendering="inherit" font-size="12" dy=".8em" y="423.7000000476837" x="751.5">操作方法</text></g></g><g id="minder_node13"><g id="node_expander10" display="none" style="cursor: pointer;"><path id="kity_path_133" fill="white" stroke="gray" d="M851.5,353.5A6,6,0,1,1,839.5,353.5A6,6,0,1,1,851.5,353.5"></path><path id="kity_path_134" fill="none" stroke="gray"></path></g><path id="node_outline11" fill="none" stroke="none" d="M856.5,342.5h170a5,5,0,0,1,5,5v12a5,5,0,0,1,-5,5h-170a5,5,0,0,1,-5,-5v-12a5,5,0,0,1,5,-5z"></path><g id="node_text11" fill="black"><text id="kity_text_79" text-rendering="inherit" font-size="12" dy=".8em" y="345.7000000476837" x="861.5">set('key', value)：添加键值对</text></g></g><g id="minder_node14"><g id="node_expander11" display="none" style="cursor: pointer;"><path id="kity_path_136" fill="white" stroke="gray" d="M851.5,405.5A6,6,0,1,1,839.5,405.5A6,6,0,1,1,851.5,405.5"></path><path id="kity_path_137" fill="none" stroke="gray"></path></g><path id="node_outline12" fill="none" stroke="none" d="M856.5,394.5h225a5,5,0,0,1,5,5v12a5,5,0,0,1,-5,5h-225a5,5,0,0,1,-5,-5v-12a5,5,0,0,1,5,-5z"></path><g id="node_text12" fill="black"><text id="kity_text_81" text-rendering="inherit" font-size="12" dy=".8em" y="397.7000000476837" x="861.5">get('key')： 通过key获取对应的value值</text></g></g><g id="minder_node15"><g id="node_expander12" display="none" style="cursor: pointer;"><path id="kity_path_139" fill="white" stroke="gray" d="M851.5,457.5A6,6,0,1,1,839.5,457.5A6,6,0,1,1,851.5,457.5"></path><path id="kity_path_140" fill="none" stroke="gray"></path></g><path id="node_outline13" fill="none" stroke="none" d="M856.5,446.5h214a5,5,0,0,1,5,5v12a5,5,0,0,1,-5,5h-214a5,5,0,0,1,-5,-5v-12a5,5,0,0,1,5,-5z"></path><g id="node_text13" fill="black"><text id="kity_text_83" text-rendering="inherit" font-size="12" dy=".8em" y="449.7000000476837" x="861.5">has('key')： 是否存在key, 返回布尔值</text></g></g><g id="minder_node16"><g id="node_expander13" display="none" style="cursor: pointer;"><path id="kity_path_142" fill="white" stroke="gray" d="M851.5,509.5A6,6,0,1,1,839.5,509.5A6,6,0,1,1,851.5,509.5"></path><path id="kity_path_143" fill="none" stroke="gray"></path></g><path id="node_outline14" fill="none" stroke="none" d="M856.5,498.5h183a5,5,0,0,1,5,5v12a5,5,0,0,1,-5,5h-183a5,5,0,0,1,-5,-5v-12a5,5,0,0,1,5,-5z"></path><g id="node_text14" fill="black"><text id="kity_text_85" text-rendering="inherit" font-size="12" dy=".8em" y="501.7000000476837" x="861.5">delete('key'): 删除对应的键值对</text></g></g></g></g></svg>